<?xml version="1.0" encoding="UTF-8" standalone="no"?>
<!-- Created with Inkscape (http://www.inkscape.org/) -->

<svg
   version="1.1"
   id="svg1"
   width="397"
   height="560"
   viewBox="0 0 397 560"
   sodipodi:docname="mlboss-icon-dark.svg"
   inkscape:version="1.4.2 (f4327f4, 2025-05-13)"
   xmlns:inkscape="http://www.inkscape.org/namespaces/inkscape"
   xmlns:sodipodi="http://sodipodi.sourceforge.net/DTD/sodipodi-0.dtd"
   xmlns="http://www.w3.org/2000/svg"
   xmlns:svg="http://www.w3.org/2000/svg">
  <defs
     id="defs1" />
  <sodipodi:namedview
     id="namedview1"
     pagecolor="#ffffff"
     bordercolor="#000000"
     borderopacity="0.25"
     inkscape:showpageshadow="2"
     inkscape:pageopacity="0.0"
     inkscape:pagecheckerboard="0"
     inkscape:deskcolor="#d1d1d1"
     inkscape:zoom="1.4410714"
     inkscape:cx="280.34696"
     inkscape:cy="280"
     inkscape:window-width="1920"
     inkscape:window-height="1009"
     inkscape:window-x="2248"
     inkscape:window-y="87"
     inkscape:window-maximized="1"
     inkscape:current-layer="g1" />
  <g
     inkscape:groupmode="layer"
     inkscape:label="Image"
     id="g1">
    <g
       id="g5"
       transform="matrix(1.1412105,0,0,1.1412105,-124.01219,-31.822198)">
      <path
         style="fill:#f8f5f0"
         d="m 262,516.57268 c -67.89511,-7.80142 -124.00885,-52.59829 -145.02844,-115.77947 -6.24295,-18.76521 -7.44874,-27.30393 -7.4278,-52.59928 0.0176,-21.33247 0.11392,-22.38115 3.17282,-34.56184 7.48418,-29.8024 21.58086,-55.65086 41.45772,-76.01915 21.12301,-21.64526 45.55812,-36.1245 75.8257,-44.93119 18.47999,-5.37695 27.38866,-6.46337 53,-6.46337 27.60532,0 36.18448,1.21535 57,8.07482 45.29804,14.92734 77.43311,42.1656 97.80438,82.90073 6.5404,13.07843 7.67709,15.91977 11.17,27.92127 5.85396,20.11403 7.79524,38.34651 6.1078,57.36446 -3.6301,40.91215 -19.36045,74.49477 -48.58107,103.71538 -14.4874,14.48741 -26.68602,23.35603 -44.00111,31.98961 -31.20179,15.55771 -67.43566,22.18725 -100.5,18.38803 z m 38,-22.39064 c 9.97301,-0.66723 17.93359,-2.37037 31,-6.63234 14.65019,-4.77857 44.57222,-20.79898 45.73099,-24.48461 0.24012,-0.76377 -2.65053,-1.26174 -8.93804,-1.53976 -13.69294,-0.60548 -19.47499,-4.94738 -15.66344,-11.76211 1.2364,-2.21056 2.21848,-2.61066 7.0339,-2.86562 l 5.59687,-0.29632 -4.47351,-6.67117 c -2.46043,-3.66914 -5.56407,-8.82329 -6.89698,-11.45367 -1.33292,-2.63038 -3.03879,-4.78251 -3.79084,-4.78251 -2.59512,0 -17.10795,-7.88602 -20.34895,-11.05726 -3.80613,-3.72422 -4.28412,-7.90862 -1.25,-10.94274 2.65682,-2.65682 3.7588,-2.53882 9.33895,1 2.60178,1.65 4.87235,3 5.04572,3 0.17337,0 -0.70112,-3.50897 -1.94332,-7.79771 -1.24219,-4.28873 -3.02807,-11.67255 -3.96861,-16.40848 -1.70592,-8.58981 -1.72188,-8.61842 -6.55382,-11.74941 -9.59325,-6.21621 -15.25486,-15.45569 -13.03129,-21.26647 1.0681,-2.79125 4.82553,-4.48572 7.59247,-3.42394 0.81651,0.31332 2.73001,2.36978 4.25223,4.56989 1.52222,2.20012 2.99267,4.01282 3.26767,4.02822 0.275,0.0154 0.58898,-4.91369 0.69774,-10.95353 0.10876,-6.03985 0.65065,-13.43152 1.2042,-16.42594 1.00322,-5.42689 0.99239,-5.46538 -3.36639,-11.96546 -2.65257,-3.95567 -4.86413,-8.71634 -5.62166,-12.10134 -1.15001,-5.1388 -1.08917,-5.7949 0.76898,-8.29305 3.85787,-5.18666 9.63463,-3.36771 10.91094,3.43555 0.3481,1.85557 0.93109,3.55804 1.29552,3.78327 0.36444,0.22524 3.18787,-5.87401 6.27429,-13.55387 l 5.61168,-13.9634 -1.98965,-5.20716 c -1.12387,-2.94132 -2.05405,-7.97688 -2.13765,-11.57228 -0.13456,-5.78702 0.0908,-6.54587 2.48183,-8.35552 4.49791,-3.40432 8.84589,0.0297 8.88548,7.01768 0.0316,5.57406 1.53439,5.58076 5.08626,0.0227 1.86914,-2.92488 5.53593,-8.11454 8.14843,-11.5326 2.6125,-3.41805 4.75,-6.39225 4.75,-6.60932 0,-0.76577 -10.85307,-7.58764 -19.12547,-12.02162 -11.04856,-5.92199 -26.63603,-11.10935 -41.39938,-13.7773 -16.75263,-3.02745 -44.05243,-3.05979 -60.47515,-0.0716 -21.80557,3.96757 -38.95613,10.15381 -55.30118,19.94724 -5.05935,3.03139 -9.36831,5.65873 -9.57545,5.83852 -0.20715,0.17979 1.40118,2.48241 3.57407,5.11693 2.17289,2.63452 6.15458,7.9119 8.84821,11.72753 l 4.8975,6.9375 1.17727,-5.87696 c 1.71185,-8.5455 5.30782,-10.66071 10.05439,-5.91414 2.31295,2.31295 2.52085,3.11624 1.98264,7.66056 -0.33069,2.79217 -1.54919,7.92522 -2.70778,11.40679 l -2.10653,6.33012 3.95905,9.75931 c 2.17748,5.36763 4.49904,11.45096 5.15902,13.51853 1.37699,4.31374 2.502,4.17473 3.4215,-0.42278 1.31282,-6.56406 6.57945,-8.87427 10.74183,-4.71189 3.82886,3.82886 1.02162,14.75116 -6.13646,23.87546 l -2.74578,3.5 1.35725,9 c 0.74649,4.95 1.36697,12.57493 1.37885,16.94428 l 0.0216,7.94428 2.52031,-3.44428 c 3.15449,-4.31099 5.30927,-5.94431 7.84208,-5.94431 5.03871,0 7.30344,6.87797 4.22493,12.83114 -1.38044,2.66948 -8.489,9.6766 -13.86674,13.66886 -2.30599,1.71189 -3.04894,3.65661 -5.1575,13.5 -1.35488,6.325 -3.1168,13.6375 -3.91538,16.25 -0.79858,2.6125 -1.23958,4.75 -0.98001,4.75 0.25958,0 2.5283,-1.4148 5.0416,-3.14399 3.76947,-2.59347 5.02364,-2.98434 7.16236,-2.23219 3.55578,1.2505 5.03912,5.66283 3.07822,9.15643 -2.22054,3.95615 -8.96552,8.66852 -16.98788,11.86853 l -7.14794,2.85122 -7.40702,11.30008 C 202.33316,441.70905 199,446.93612 199,447.10973 c 0,0.17361 1.9125,-0.0515 4.25,-0.50027 5.92592,-1.13767 9.25,1.24717 9.25,6.63634 0,5.62359 -3.84044,7.58771 -16.08895,8.22839 -5.17608,0.27074 -9.41105,0.89748 -9.41105,1.39276 0,1.3904 17.45349,12.36289 27.5,17.28843 17.8693,8.76085 33.8378,13.10028 53.2048,14.45837 10.66287,0.74773 15.66588,0.68085 32.2952,-0.43171 z M 172.25865,448.44393 c 0.23393,-0.6875 -8.2e-4,-2.80702 -0.52166,-4.71004 -0.52084,-1.90302 -0.75368,-6.13245 -0.51742,-9.39873 0.33738,-4.66416 0.92022,-6.33601 2.71578,-7.78996 4.3968,-3.56032 7.43524,-1.53417 8.51699,5.67945 l 0.69428,4.6298 5.41644,-8.62685 c 8.14942,-12.97971 7.83436,-11.94385 4.99888,-16.43555 C 190.65617,407.18901 187,396.85697 187,393.24853 c 0,-3.27969 4.03765,-6.01295 7.57208,-5.12587 1.96121,0.49224 3.26533,2.14433 5.39352,6.83264 l 2.80688,6.18343 2.5163,-7.9724 c 1.38397,-4.38482 3.07089,-10.79595 3.7487,-14.24695 l 1.23239,-6.27455 -6.16125,-6.41629 c -7.26586,-7.56665 -9.74049,-12.46744 -7.98188,-15.80745 2.81186,-5.34036 6.55388,-5.01948 11.92801,1.02284 l 4.22472,4.75 -0.61955,-14 c -0.34076,-7.7 -0.88649,-14.93741 -1.21273,-16.08313 -0.4153,-1.45847 -2.95814,-3.05008 -8.47985,-5.30771 -10.95558,-4.47935 -15.57023,-10.49641 -11.71734,-15.27829 2.12406,-2.6362 4.14611,-2.69985 9.79938,-0.30845 2.99784,1.26812 5.60797,2.1495 5.80028,1.95863 0.57707,-0.57274 -1.89197,-7.5017 -5.5597,-15.60243 l -3.4507,-7.62139 -6.70472,-0.47972 c -3.6876,-0.26384 -8.39626,-1.2824 -10.46369,-2.26346 -6.48735,-3.07845 -8.55266,-10.90138 -3.58057,-13.56237 1.58836,-0.85006 3.00315,-0.73134 6.11301,0.51299 2.22549,0.89046 4.21858,1.44679 4.42909,1.23629 0.51488,-0.51489 -8.75321,-12.61807 -11.85387,-15.47996 l -2.46915,-2.279 -6.98515,7.35354 c -7.6841,8.08936 -18.99461,25.91408 -23.59625,37.18634 -17.47965,42.81847 -13.06535,93.70568 11.2864,130.1077 5.91055,8.83533 17.12522,23.26256 18.15231,23.35222 0.36666,0.032 0.85806,-0.5043 1.09198,-1.1918 z m 230.21519,-9.75 c 10.9781,-13.46137 20.88603,-32.49807 25.40905,-48.81997 4.07293,-14.69764 5.41237,-27.43099 4.80516,-45.68003 -0.9205,-27.66426 -6.5093,-46.00999 -21.38181,-70.18765 -4.79739,-7.79892 -18.24,-23.50021 -19.7047,-23.01556 -0.60585,0.20047 -4.1484,4.37508 -7.87235,9.27691 -6.47083,8.51756 -7.3826,11.39823 -2.53244,8.00105 3.24539,-2.27317 6.51003,-1.95189 8.32583,0.81936 4.40186,6.7181 -5.38269,14.5831 -18.1637,14.60031 l -4.14113,0.006 -4.04105,9.25 c -2.22258,5.0875 -4.34675,10.49301 -4.72036,12.01225 l -0.6793,2.76225 4.69438,-2.01225 C 370.82517,302.12535 375,303.32823 375,309.31601 c 0,4.27596 -5.52779,9.03587 -14.29026,12.30516 -7.6216,2.84363 -7.33955,2.09899 -8.36047,22.07276 l -0.63891,12.5 4.46471,-4.75 c 4.72982,-5.03206 7.00073,-5.71602 10.60242,-3.1933 4.62241,3.23766 2.28613,9.3362 -7.21718,18.83951 l -5.58219,5.58219 1.5674,7.58826 c 2.03361,9.84531 5.31695,20.43334 6.33637,20.43334 0.44085,0 1.32257,-1.73907 1.9594,-3.8646 2.40619,-8.03115 7.72843,-11.42283 11.6971,-7.45416 2.68452,2.68453 1.40984,10.22515 -3.28027,19.40501 l -4.01325,7.85506 6.12756,10.05042 6.12757,10.05043 1.1745,-5.16541 c 1.65137,-7.26264 4.52708,-8.76608 8.72936,-4.5638 2.79367,2.79367 3.95914,9.58072 2.60792,15.18705 -0.53024,2.2 -0.9748,4.86594 -0.98792,5.92431 -0.0219,1.76708 0.18748,1.72623 2.5626,-0.5 1.42255,-1.33337 4.97187,-5.34931 7.88738,-8.92431 z"
         id="path5" />
      <path
         style="fill:#c79121"
         d="m 182.59626,186.44393 c -4.14416,-15.19241 -7.0134,-24.97756 -12.80926,-43.68428 -3.84532,-12.41115 -8.7167,-28.38173 -10.8253,-35.49018 -2.55545,-8.614862 -4.43867,-13.260779 -5.64776,-13.933055 -11.14601,-6.197388 -11.66448,-21.926547 -0.89125,-27.038776 4.63078,-2.197451 9.73589,-1.281387 14.07103,2.524916 5.19805,4.563952 6.74931,10.841297 4.16925,16.871373 -1.06712,2.494065 33.10848,25.985242 44.10727,30.317872 14.86875,5.85709 22.16897,-1.2095 49.64886,-48.059887 l 7.76704,-13.242015 -2.18553,-4.514701 c -3.28981,-6.795843 -1.74603,-15.196562 3.55957,-19.369946 5.46339,-4.297503 16.15738,-1.560458 20.33905,5.205625 2.65168,4.290511 2.6772,9.612829 0.0706,14.7222 l -2.03017,3.979472 9.58029,17.100123 c 19.86009,35.448829 28.73656,45.861259 39.09612,45.861259 5.26225,0 15.2139,-4.87256 28.88393,-14.14225 20.0501,-13.596047 23.43951,-16.252324 22.78647,-17.857752 -4.03737,-9.925493 2.6634,-20.166667 13.195,-20.166667 5.38827,0 9.57373,2.655877 11.89524,7.548102 3.32934,7.016065 0.94471,14.583266 -6.02477,19.118565 -2.8878,1.879194 -3.63276,3.872498 -12.33318,33.000002 -11.56146,38.70579 -16.67533,56.21354 -17.45252,59.75 -0.33239,1.5125 -1.2074,2.75 -1.94446,2.75 -0.73706,0 -4.66599,-1.52786 -8.73095,-3.39525 C 357.07641,177.95253 330.94641,170.3291 313.5,167.5549 c -11.73335,-1.86576 -45.2365,-1.58946 -60.5,0.49893 -23.27169,3.1841 -44.86559,9.02503 -61.87008,16.73523 -7.1969,3.26323 -8.04982,3.42863 -8.53366,1.65487 z"
         id="path4" />
    </g>
  </g>
</svg>
