<?xml version="1.0" encoding="UTF-8" standalone="no"?>
<!-- Created with Inkscape (http://www.inkscape.org/) -->

<svg
   version="1.1"
   id="svg1"
   width="1024"
   height="1024"
   viewBox="0 0 1024 1024"
   sodipodi:docname="mlboss-logo-light.svg"
   inkscape:version="1.4.2 (f4327f4, 2025-05-13)"
   xmlns:inkscape="http://www.inkscape.org/namespaces/inkscape"
   xmlns:sodipodi="http://sodipodi.sourceforge.net/DTD/sodipodi-0.dtd"
   xmlns="http://www.w3.org/2000/svg"
   xmlns:svg="http://www.w3.org/2000/svg">
  <defs
     id="defs1" />
  <sodipodi:namedview
     id="namedview1"
     pagecolor="#ffffff"
     bordercolor="#000000"
     borderopacity="0.25"
     inkscape:showpageshadow="2"
     inkscape:pageopacity="0.0"
     inkscape:pagecheckerboard="0"
     inkscape:deskcolor="#d1d1d1"
     inkscape:zoom="0.78808594"
     inkscape:cx="491.69765"
     inkscape:cy="512"
     inkscape:window-width="1920"
     inkscape:window-height="1009"
     inkscape:window-x="2248"
     inkscape:window-y="87"
     inkscape:window-maximized="1"
     inkscape:current-layer="g1" />
  <g
     inkscape:groupmode="layer"
     inkscape:label="Image"
     id="g1">
    <g
       id="g7">
      <g
         id="g6">
        <path
           style="fill:#c89222;fill-opacity:1;stroke-width:1.31134"
           d="m 375.58727,207.8175 c -5.43942,-19.94081 -9.19751,-32.75222 -16.80385,-57.28489 -5.04614,-16.27522 -11.23354,-36.67253 -13.74982,-45.32737 -4.29525,-14.773777 -4.95987,-16.09692 -10.86844,-21.637082 -9.42327,-8.83575 -11.05604,-18.52615 -4.74458,-28.158667 4.99206,-7.618839 16.9182,-8.754917 24.5442,-2.338078 6.17134,5.192849 8.16059,10.211526 7.21993,18.215164 l -0.81398,6.925657 9.62693,7.119453 c 28.0018,20.708303 46.20249,31.098343 56.15091,32.054253 14.55411,1.39847 24.49165,-9.97804 56.73615,-64.951601 l 10.18522,-17.364773 -2.74471,-5.669849 c -3.14298,-6.492517 -3.36887,-9.666678 -1.20256,-16.897215 3.20317,-10.6912259 13.71523,-14.5221679 24.60471,-8.9667719 9.89367,5.04738 13.18316,16.0056309 7.90835,26.3451039 l -2.66224,5.218433 12.56301,22.42405 c 26.01972,46.443293 37.6889,60.141333 51.23127,60.138613 8.95048,-0.001 25.85718,-9.31835 53.97892,-29.745423 l 13.44265,-9.764467 -0.81401,-6.925955 c -1.51994,-12.932358 5.96796,-21.752736 18.46659,-21.752736 7.39827,0 12.54083,3.186369 15.62204,9.679568 4.32475,9.113686 2.06217,17.045384 -7.01772,24.601462 -5.2354,4.356779 -5.40802,4.792744 -16.27997,41.120941 -20.85561,69.68823 -23.09316,77.39222 -23.09316,79.51095 0,1.16963 -0.89281,2.86756 -1.98404,3.7732 -1.63285,1.35515 -3.77988,0.82886 -12.12988,-2.97335 -18.82268,-8.57102 -52.71812,-18.48211 -75.71278,-22.13853 -15.38639,-2.44666 -59.32037,-2.08433 -79.33599,0.65426 -30.51707,4.17543 -58.83399,11.83487 -81.13264,21.94555 -9.43757,4.2792 -10.55603,4.4961 -11.19051,2.1701 z"
           id="path5" />
      </g>
      <path
         style="fill:#132f43;fill-opacity:1;stroke-width:1.31134"
         d="m 257.45326,1015.1889 c -23.40383,-18.19334 -52.91944,-26.28426 -92.22584,-25.28129 -25.29631,0.64547 -24.57041,-2.49428 3.0421,-13.1584 66.96305,-25.86151 218.50993,-53.64297 394.05728,-72.23826 86.95993,-9.21145 143.52265,-13.65063 301.60791,-23.67098 58.7786,-3.72572 83.83346,-7.03644 100.53213,-13.28423 5.64448,-2.11187 7.50147,-2.3327 9.01975,-1.07265 5.84176,4.84823 -2.57333,12.75219 -19.27169,18.10116 -22.32105,7.15008 -40.99077,10.13582 -119.78531,19.15665 -133.07602,15.23527 -294.21597,40.75057 -382.25523,60.52725 -67.74967,15.21894 -127.4566,33.76532 -162.46635,50.46585 -8.93865,4.264 -17.79018,7.714 -19.67008,7.6667 -2.04739,-0.052 -7.0938,-2.9434 -12.58467,-7.2118 z M 48.523828,924.71049 c -19.594679,-5.27312 -32.407061,-20.8661 -35.574993,-43.29561 -3.9233687,-27.7783 13.358332,-59.87088 36.66903,-68.09537 11.216561,-3.95744 25.443076,-1.72076 28.786087,4.52569 2.504735,4.68016 1.379413,6.57029 -7.100241,11.92567 -9.823936,6.20437 -15.066143,11.77922 -20.035382,21.30668 -3.016355,5.78322 -3.571405,8.48687 -3.603743,17.55389 -0.03147,8.81672 0.441345,11.36091 2.66548,14.34369 4.815917,6.45862 9.220402,8.8274 17.531405,9.42856 10.605495,0.76713 17.130881,-2.56737 28.55078,-14.58955 11.728019,-12.34657 17.686779,-22.93479 37.799839,-67.16717 29.29902,-64.43406 44.73359,-93.48612 57.93272,-109.04514 4.64915,-5.48039 6.76674,-8.96014 5.94978,-9.7771 -1.66052,-1.66052 -22.34001,6.64402 -31.12654,12.49992 -16.03521,10.68689 -27.31877,23.9855 -34.16651,40.26809 -2.98529,7.09847 -3.66706,11.06479 -4.36099,25.37089 l -0.82252,16.95706 -3.93403,1.06014 c -8.18164,2.2048 -17.82247,-1.35252 -24.010339,-8.8595 -8.660924,-10.50721 -9.117883,-28.11462 -1.148129,-44.24031 15.672358,-31.71084 42.910708,-51.56155 87.146108,-63.51009 11.538,-3.11656 15.07969,-3.45369 37.01844,-3.52382 27.37669,-0.0875 30.16079,0.59466 30.16079,7.39021 0,3.16534 -1.60745,5.7824 -7.06788,11.5071 -12.132,12.71911 -19.19113,30.21224 -21.79745,54.01585 -0.81646,7.4567 -2.61291,21.52402 -3.99212,31.26071 -2.99867,21.16923 -2.92945,19.67378 -0.90952,19.65417 0.90154,-0.01 5.1546,-6.87831 9.45125,-15.26565 16.08696,-31.40283 40.0829,-63.56755 59.75472,-80.09659 16.0731,-13.50525 36.54171,-22.68887 50.40137,-22.61354 8.15038,0.0443 16.18096,4.26659 18.4518,9.70151 2.62482,6.28209 1.14263,9.39843 -8.40344,17.66832 -4.37301,3.78842 -10.55958,10.35829 -13.74793,14.59973 -24.16409,32.14535 -59.93998,139.19903 -51.69219,154.68068 0.95421,1.7911 3.38831,3.83803 5.40911,4.5487 5.30253,1.8648 15.67359,-3.94181 28.36549,-15.88143 9.62367,-9.05324 10.22547,-9.95163 11.04337,-16.4855 4.13655,-33.04567 17.72468,-75.87611 33.18641,-104.60521 20.77571,-38.60281 42.69719,-58.34388 64.79656,-58.35152 6.91032,-0.002 9.62913,0.59337 12.53189,2.74604 5.57971,4.13788 6.94479,8.00318 6.96602,19.72481 0.045,24.82307 -16.67189,62.58888 -43.74438,98.82493 -10.8459,14.51706 -29.22162,34.05198 -37.21145,39.5589 -5.57221,3.8406 -5.5732,3.84274 -5.5732,12.20137 0,7.15498 0.50685,8.96244 3.51608,12.53871 3.21783,3.82416 4.0356,4.1287 9.64043,3.59015 11.53036,-1.10792 17.71697,-5.30854 37.59673,-25.52765 16.23747,-16.51468 19.09561,-18.88943 22.29275,-18.52255 3.46058,0.39712 3.71035,0.86439 4.43062,8.28886 1.09732,11.31115 3.3579,17.02005 8.54178,21.57156 9.33699,8.19797 23.11803,3.97562 34.65306,-10.61728 7.25734,-9.18124 17.3487,-30.50064 28.15139,-59.47381 18.96854,-50.87417 29.03369,-74.47876 37.42124,-87.7595 6.78381,-10.74141 5.93282,-12.5246 -4.09398,-8.57866 -19.1747,7.54598 -34.60889,18.39302 -41.33736,29.05162 -6.65,10.53429 -8.03542,25.97823 -3.14942,35.10783 2.24646,4.19754 1.5767,5.33842 -4.78624,8.15305 -11.08237,4.90225 -28.0812,0.55829 -32.68978,-8.35372 -3.72718,-7.20758 -2.00848,-20.77983 4.12668,-32.5878 6.81586,-13.11804 24.74454,-31.05736 39.2078,-39.23105 36.66612,-20.7213 82.88013,-28.35389 114.82472,-18.96414 11.71131,3.4424 24.4787,10.84168 30.75774,17.82549 7.72478,8.59181 10.37039,16.81097 9.61448,29.86927 -1.30565,22.55421 -17.0274,41.99537 -40.97249,50.66568 -4.3042,1.55851 -8.02376,3.42751 -8.26569,4.15332 -0.24194,0.72583 2.87938,3.19295 6.93626,5.48251 17.19075,9.70187 25.61828,21.81159 26.56541,38.17247 1.0965,18.94142 -5.28268,35.65516 -18.74672,49.11727 -8.89116,8.88986 -19.05767,14.73414 -33.43988,19.22307 -8.01543,2.50175 -12.74639,3.06968 -25.57109,3.06968 -14.61679,0 -16.27317,-0.26374 -23.28716,-3.70795 -10.25417,-5.0353 -14.43373,-10.74021 -15.15294,-20.68307 -0.67262,-9.29895 1.46345,-15.32523 5.81969,-16.41858 4.76488,-1.19591 6.20287,-0.0404 8.64756,6.94908 3.29584,9.42285 7.27461,12.59473 16.64933,13.27283 19.55221,1.41428 38.56979,-13.47373 43.98791,-34.43621 2.55171,-9.87249 2.53921,-14.1962 -0.0668,-23.09058 -3.21556,-10.97513 -13.5561,-20.43266 -28.79807,-26.33893 l -11.73363,-4.54678 -0.391,-5.93634 c -0.24548,-3.7272 0.24252,-6.42955 1.31134,-7.2617 0.93628,-0.72895 7.19675,-1.9782 13.91215,-2.77612 14.8825,-1.76833 23.94031,-5.66202 33.18127,-14.26366 7.65042,-7.12113 13.59175,-18.22396 14.92004,-27.88166 2.64322,-19.21854 -12.42145,-32.47037 -33.6009,-29.55745 -5.86424,0.80654 -7.02538,1.54331 -11.02489,6.9956 -6.59866,8.99556 -14.73794,28.47547 -27.52374,65.87326 -27.33888,79.96475 -42.13813,107.30835 -66.78058,123.3862 -4.29368,2.80139 -11.03562,6.0321 -14.98209,7.17938 -9.2669,2.69395 -22.47295,1.84196 -29.85171,-1.92591 -7.03565,-3.59267 -14.23637,-12.08257 -17.36013,-20.46823 -1.36369,-3.66077 -3.29742,-6.82082 -4.29717,-7.02236 -0.99975,-0.20154 -4.09596,2.62099 -6.88048,6.27226 -8.11504,10.64115 -21.43521,21.98327 -31.87883,27.14478 -7.93963,3.92397 -11.45341,4.86627 -19.98871,5.36038 -8.79727,0.50925 -11.26084,0.1613 -16.3703,-2.31214 -6.1582,-2.98113 -11.38179,-9.85287 -13.24545,-17.42467 -0.48985,-1.99022 -1.43164,-3.95291 -2.09283,-4.36156 -0.66121,-0.40864 -6.64438,4.77846 -13.29596,11.52691 -16.52038,16.76099 -25.52543,21.36866 -41.76209,21.36866 -13.55741,0 -17.08491,-1.85907 -21.95435,-11.57042 -2.62103,-5.22721 -3.0892,-8.06896 -3.01329,-18.29057 0.13382,-18.01852 4.34775,-36.76963 16.86512,-75.04611 7.62084,-23.30351 14.54911,-40.82702 22.03449,-55.73132 6.60085,-13.14297 6.59173,-13.11396 4.12082,-13.11396 -3.79004,0 -27.07134,32.47215 -42.77819,59.66591 -3.74921,6.49113 -15.38019,29.06379 -25.84664,50.16146 -10.46644,21.09769 -20.65089,40.09469 -22.63209,42.21557 -4.53275,4.85234 -9.35771,6.09255 -15.98166,4.10796 -8.55849,-2.56419 -8.68322,-4.37365 -2.58335,-37.47475 7.22476,-39.20531 8.70066,-48.37503 12.55838,-78.02465 1.82987,-14.06411 3.67158,-27.78399 4.09265,-30.48862 0.62268,-3.99962 0.36298,-4.91752 -1.39129,-4.91752 -3.27403,0 -15.7454,28.8591 -32.71195,75.69639 -17.76818,49.05018 -34.21198,79.02275 -53.52553,97.56242 -15.886687,15.2501 -40.372121,21.72276 -61.086984,16.14818 z M 376.96754,803.16528 c 8.64293,-9.05461 12.24784,-14.04783 23.43167,-32.45564 17.19297,-28.2984 26.22712,-50.24112 25.29161,-61.42988 -0.58737,-7.02494 -3.73366,-6.78374 -11.8685,0.90985 -13.21059,12.49402 -29.90599,44.61967 -42.86334,82.47852 -7.38669,21.58248 -6.33184,23.42533 6.00856,10.49715 z m 304.69109,63.33117 c -18.09555,-3.25104 -26.18668,-12.24679 -27.25836,-30.30588 -1.78088,-30.0104 22.77857,-74.54106 51.69712,-93.7361 11.77864,-7.81822 19.20225,-10.21875 31.9488,-10.33109 9.82284,-0.0865 11.85492,0.31832 17.1134,3.40978 4.20928,2.47463 7.09429,5.56494 9.79375,10.49071 3.37516,6.15868 3.88828,8.58063 4.34828,20.52357 0.60067,15.59529 1.07234,16.16721 10.42903,12.64583 13.34284,-5.02159 24.30426,-16.2723 42.96464,-44.09854 9.13605,-13.62367 14.52492,-19.10256 23.24497,-23.63332 7.35929,-3.82375 19.16209,-4.10083 23.09888,-0.54227 3.86586,3.49444 3.46645,6.24755 -1.82522,12.58127 -5.99506,7.17562 -9.05474,17.59509 -7.81866,26.62572 0.51301,3.74794 2.92446,13.5904 5.35878,21.87213 4.95003,16.84034 5.43429,24.13774 2.25509,33.98156 -1.19401,3.69706 -1.77797,7.1149 -1.29766,7.59518 2.21169,2.2117 20.99087,-20.06773 35.56382,-42.19257 5.23182,-7.94301 15.18736,-23.15944 22.12342,-33.81428 6.93605,-10.65485 15.40464,-22.35904 18.81907,-26.00935 11.20966,-11.98404 22.76726,-16.4787 32.21874,-12.52963 7.00214,2.9257 7.43139,6.65373 1.73993,15.1112 -8.83133,13.12329 -9.39215,22.53772 -2.74495,46.07856 5.17025,18.31028 5.85962,29.34241 2.53346,40.54283 -1.13092,3.80823 -1.73995,7.24032 -1.3534,7.62689 1.7927,1.79268 10.25752,-3.76382 20.05581,-13.16508 11.44173,-10.97813 14.00973,-11.87665 17.28193,-6.04683 1.7185,3.06168 1.6033,3.94904 -1.2662,9.75263 -4.0869,8.26559 -18.23568,22.23941 -28.87774,28.5206 -19.03312,11.23375 -37.56538,16.66257 -56.89341,16.66626 -12.38816,0.002 -15.35798,-0.43184 -21.03501,-3.07539 -6.67907,-3.1102 -12.18676,-8.49504 -15.76376,-15.41217 -1.07418,-2.07726 -2.4642,-3.77682 -3.08891,-3.77682 -0.62471,0 -4.00264,2.55305 -7.50652,5.67345 -20.94948,18.65667 -40.72247,27.03617 -63.91744,27.08725 -12.94865,0.0284 -19.03608,-1.76986 -25.91131,-7.65479 -16.37954,-14.02028 -12.33343,-40.5475 6.57133,-43.08317 5.98237,-0.8024 10.05073,2.32454 8.71531,6.69854 -0.46262,1.51525 -1.16117,5.13771 -1.55233,8.04989 -0.65986,4.91266 -0.32225,5.64626 4.6771,10.16287 7.00461,6.32825 12.52352,6.57604 19.03957,0.85488 9.54132,-8.3774 13.27511,-28.68117 9.39029,-51.06309 -4.3497,-25.06037 -5.87523,-26.82573 -13.84655,-16.02336 -7.3979,10.02526 -22.51862,25.18857 -28.80049,28.88161 -3.2059,1.88469 -10.28713,4.70407 -15.73606,6.26529 -7.50465,2.15024 -10.28504,3.5942 -11.46527,5.95442 -0.85695,1.71369 -3.95093,8.13169 -6.87551,14.2622 -10.62646,22.27514 -27.92707,39.49357 -45.98698,45.76851 -8.67257,3.0133 -22.07786,4.26228 -30.16078,2.8101 z m 27.93107,-23.20187 c 7.33638,-3.77833 12.57875,-8.43661 18.78345,-16.69066 6.76191,-8.99534 15.37797,-25.24033 14.30652,-26.97397 -0.38475,-0.62254 -3.89911,-2.93762 -7.80971,-5.14461 -7.46665,-4.21392 -11.7206,-8.94385 -16.37072,-18.20251 -1.5395,-3.06526 -3.65027,-5.57319 -4.6906,-5.57319 -2.30727,0 -11.51394,13.30913 -16.0292,23.17176 -4.78781,10.45798 -6.90818,19.53584 -6.92587,29.65175 -0.0176,10.0524 2.21339,16.6458 6.69438,19.78441 3.86029,2.70385 6.7578,2.69831 12.04175,-0.0229 z M 934.81629,820.6259 c 9.69381,-10.19032 11.7377,-23.73039 7.76895,-51.46669 -3.10614,-21.70778 -4.73495,-25.68096 -8.42024,-20.53978 -6.68654,9.32809 -28.26746,43.90189 -28.26746,45.28601 0,0.89504 1.19377,2.26624 2.65282,3.0471 2.39318,1.28079 2.56822,2.24556 1.78842,9.85686 l -0.86441,8.43711 5.26968,5.26968 c 4.2895,4.28952 6.18982,5.26968 10.21668,5.26968 4.05199,0 5.83505,-0.93354 9.85556,-5.15997 z M 748.99076,770.34882 c -0.24448,-10.6609 -3.47212,-17.34225 -8.37773,-17.34225 -4.22573,0 -7.06315,5.77092 -5.89611,11.99182 1.00382,5.35081 9.36617,15.19374 12.38478,14.57756 1.6887,-0.34469 2.05206,-2.11953 1.88906,-9.22713 z M 479.71246,639.41677 c -32.52663,-3.73745 -62.66739,-13.63904 -90.4558,-29.7158 -46.54828,-26.93015 -81.4292,-69.74486 -98.41426,-120.79896 -8.2102,-24.67843 -9.77386,-35.79709 -9.70023,-68.97547 0.0559,-25.18124 0.43819,-30.43177 3.00692,-41.2939 4.50012,-19.02931 8.66636,-30.55355 17.80964,-49.26325 11.1661,-22.84896 21.49274,-37.85808 37.01895,-53.80476 17.6767,-18.15537 35.67932,-31.19784 58.47216,-42.36169 39.58052,-19.38638 71.38631,-25.99512 118.68924,-24.66174 33.79612,0.95265 49.59176,4.08531 80.30556,15.92658 29.71415,11.45587 54.12132,27.39109 74.6319,48.72641 42.85424,44.57748 65.37147,105.59927 60.56195,164.12313 -4.43367,53.95051 -25.07785,98.67612 -63.09325,136.69152 -18.36323,18.36322 -34.54236,30.07571 -57.04323,41.295 -40.91612,20.40142 -88.43099,29.09499 -131.78955,24.11293 z M 526.265,612.79758 c 23.04863,-1.10293 47.21965,-8.17492 72.77929,-21.2939 21.18284,-10.87249 30.81646,-17.36645 30.81646,-20.7732 0,-2.37929 -1.13097,-2.69416 -12.18715,-3.3929 -13.15167,-0.83118 -18.88923,-3.39504 -19.69516,-8.80089 -0.83437,-5.59668 1.94117,-8.13195 8.90263,-8.13195 3.53824,0 6.77503,-0.55316 7.19287,-1.22925 0.41786,-0.67607 -1.83008,-5.24937 -4.9954,-10.16288 -3.16531,-4.91349 -7.05933,-11.50892 -8.65338,-14.65653 -1.59404,-3.14759 -4.06013,-6.02672 -5.4802,-6.39808 -5.7389,-1.50076 -20.65409,-9.45397 -25.17691,-13.42505 -5.30847,-4.66091 -6.39582,-10.06252 -2.75789,-13.70046 2.77047,-2.77049 3.73544,-2.63951 11.11484,1.50866 3.49233,1.96314 6.74135,3.17769 7.22005,2.699 0.47869,-0.47869 -0.63291,-6.65819 -2.47021,-13.73222 -1.83731,-7.07402 -4.04784,-16.57234 -4.91231,-21.10736 -1.5127,-7.93572 -1.83673,-8.42138 -8.62502,-12.92718 -13.30064,-8.82848 -20.07312,-20.60394 -15.69393,-27.28742 3.28217,-5.00924 7.66369,-4.3468 12.61724,1.90757 2.28492,2.88495 4.60832,5.24536 5.1631,5.24536 0.55479,0 1.40742,-6.66921 1.89475,-14.82047 0.48733,-8.15123 1.37777,-17.93104 1.97876,-21.73289 1.0624,-6.72072 0.93701,-7.14464 -4.52094,-15.28388 -7.18865,-10.72015 -9.85963,-21.21758 -6.64638,-26.1216 2.40346,-3.66815 7.42727,-4.47561 9.83039,-1.58 0.80527,0.97028 1.8389,3.63801 2.29695,5.9283 0.92931,4.64656 2.70305,6.35917 4.61058,4.45164 0.69592,-0.69592 4.4189,-9.03597 8.2733,-18.53346 l 7.00803,-17.26815 -2.62031,-6.85783 c -1.49794,-3.92038 -2.70343,-10.47425 -2.81439,-15.30084 -0.18349,-7.98267 0.006,-8.55469 3.49161,-10.49071 3.50328,-1.94633 3.81159,-1.89447 6.22887,1.0481 1.39875,1.70269 2.54317,4.97776 2.54317,7.27792 0,3.84282 1.90783,7.32937 4.01062,7.32937 0.47488,0 3.0869,-3.39309 5.80451,-7.5402 2.71761,-4.14711 7.22692,-10.54522 10.0207,-14.21802 2.79378,-3.67281 5.0796,-7.57244 5.0796,-8.66587 0,-4.09777 -26.89612,-19.53765 -46.2166,-26.53092 -49.48403,-17.91132 -112.72281,-15.69418 -162.32651,5.69114 -14.99016,6.46261 -35.31467,18.52025 -35.34396,20.96802 -0.0118,1.00757 1.93382,4.25314 4.32418,7.21237 2.39038,2.95921 7.1814,9.38937 10.6467,14.28922 3.46531,4.89986 6.9649,8.68739 7.77686,8.41674 0.81194,-0.27065 2.17246,-3.62717 3.02335,-7.45891 2.1195,-9.54448 5.82252,-11.69025 11.08778,-6.42498 2.36607,2.36607 2.6681,3.78137 2.00386,9.38991 -0.43018,3.63218 -2.0366,10.3736 -3.56983,14.98098 l -2.7877,8.37702 4.59246,10.75466 c 2.52587,5.91507 5.33451,13.2696 6.24144,16.34344 2.74736,9.31153 6.70115,10.62992 8.27527,2.75936 0.45805,-2.29029 1.49167,-4.95802 2.29693,-5.9283 2.02619,-2.44141 7.06834,-2.20817 9.72643,0.44991 4.32825,4.32825 0.32786,18.94533 -8.27869,30.24953 -2.88534,3.78973 -3.16001,5.11673 -2.44283,11.80206 0.44443,4.14272 1.19087,13.87581 1.65877,21.62911 0.56946,9.43629 1.35988,14.09689 2.39075,14.09689 0.84701,0 3.36854,-2.06536 5.60341,-4.58969 6.57863,-7.43067 13.47115,-5.78569 13.46167,3.21279 -0.006,5.89576 -3.3662,11.41821 -10.65459,17.51175 -3.15273,2.63589 -7.33583,6.13241 -9.29577,7.77005 -3.05347,2.55137 -4.15048,5.60524 -7.66447,21.33629 -2.25551,10.0973 -4.40886,19.68647 -4.78521,21.30925 -0.91982,3.96617 1.66482,3.82155 7.94274,-0.4444 6.05676,-4.11568 10.88433,-3.50201 12.15095,1.54457 1.84463,7.34965 -4.7207,13.74758 -21.39786,20.85223 l -10.22073,4.35414 -9.4927,14.22092 c -5.22098,7.82151 -9.49923,15.03877 -9.50721,16.03834 -0.0106,1.39055 1.32126,1.63433 5.67245,1.03794 7.56407,-1.03677 11.36045,1.52837 11.36045,7.67604 0,6.192 -4.92045,8.53339 -20.19695,9.61072 -16.49602,1.16333 -16.56969,2.94628 -0.5504,13.31949 22.10474,14.31382 47.46665,25.14421 69.18742,29.5454 11.38193,2.30628 35.26609,4.2678 44.66497,3.66816 3.24557,-0.20706 11.80206,-0.65884 19.01443,-1.00397 z M 362.30818,543.22127 c -1.20733,-12.8841 -0.0668,-18.75238 4.0054,-20.60779 4.27004,-1.94555 6.61772,0.14152 7.68798,6.8346 0.51703,3.2334 1.54105,5.22059 2.69022,5.22059 1.02047,0 5.40466,-5.67318 9.74262,-12.60707 l 7.8872,-12.60708 -4.39482,-8.70218 c -7.53717,-14.92434 -9.08648,-24.0206 -4.50856,-26.47062 4.83346,-2.58678 8.48382,-0.51678 11.51523,6.5299 3.16472,7.35658 4.51163,8.65579 6.49546,6.26538 1.62959,-1.9635 7.37628,-21.41617 8.72421,-29.53148 0.92701,-5.58115 0.83417,-5.76467 -7.09234,-14.01932 -4.41741,-4.60026 -8.93255,-10.52026 -10.03364,-13.15554 -1.80481,-4.31952 -1.79843,-5.10204 0.0648,-7.94559 3.15654,-4.81751 7.5851,-4.05782 12.96163,2.22343 7.0379,8.22222 7.92791,6.45836 7.00818,-13.88911 -0.43,-9.5134 -1.47255,-18.81304 -2.31676,-20.66586 -1.08307,-2.37711 -3.74765,-4.17559 -9.05174,-6.10956 -9.99267,-3.6435 -16.11415,-7.92413 -17.67378,-12.3589 -2.61986,-7.44953 4.43099,-10.35114 14.66657,-6.03571 6.68998,2.82056 7.61076,0.54585 3.83718,-9.47961 -2.91001,-7.73121 -8.24028,-19.21441 -9.61766,-20.71971 -0.3074,-0.33596 -4.51312,-0.97445 -9.34601,-1.41889 -10.9509,-1.00704 -17.88801,-4.17844 -19.93157,-9.11201 -2.861,-6.90709 1.7666,-12.44839 7.73037,-9.25668 3.38462,1.81142 8.00373,1.77305 8.00373,-0.0665 0,-3.18406 -16.36666,-22.15362 -19.11384,-22.15362 -3.60004,0 -20.32758,20.04439 -29.42683,35.26179 -10.74051,17.96221 -18.11392,36.55025 -22.47983,56.67062 -4.17857,19.25708 -4.22588,56.13803 -0.096,74.84726 5.48146,24.83215 13.53676,44.67423 25.23657,62.16356 10.93328,16.34346 22.67988,30.54122 25.33824,30.62551 2.20592,0.0699 2.33005,-0.74183 1.48782,-9.72982 z m 300.04118,-1.30593 c 15.96533,-18.43094 31.12665,-47.08657 36.945,-69.82785 8.64681,-33.79647 7.66458,-78.12836 -2.38064,-107.44796 -4.23607,-12.36404 -12.13488,-29.00492 -19.30589,-40.67282 -7.54514,-12.27661 -24.43889,-31.8957 -27.465,-31.8957 -2.15614,0 -11.80505,10.9664 -17.65462,20.06525 -3.09911,4.82059 -0.99733,7.4647 3.45484,4.34628 4.56987,-3.20088 8.79391,-2.69032 10.60366,1.28166 3.17569,6.96987 -5.13557,14.19121 -18.05417,15.68659 -12.2745,1.4208 -11.71406,0.96858 -17.36521,14.01208 -8.59348,19.83474 -8.44447,21.326 1.74214,17.4357 3.1656,-1.20895 7.39849,-2.00943 9.40644,-1.77885 3.1573,0.36258 3.7046,1.0633 4.04868,5.18358 0.34391,4.11831 -0.25479,5.30229 -4.41538,8.73181 -2.64727,2.18211 -8.21888,5.20924 -12.38133,6.72694 -4.16246,1.51771 -8.24253,3.5721 -9.06683,4.56534 -3.13781,3.78083 -5.42681,39.11062 -2.64534,40.82967 0.76677,0.47388 3.62662,-1.55665 6.35526,-4.5123 5.10578,-5.53055 7.61156,-6.36875 12.00693,-4.01643 5.87714,3.14535 2.17876,12.13572 -9.8704,23.9939 l -7.34138,7.22503 1.90049,9.11472 c 3.29259,15.79144 7.32517,27.80983 9.3311,27.80983 1.02464,0 3.5076,-3.39309 5.51766,-7.54019 2.66829,-5.50512 4.47048,-7.65585 6.67736,-7.96869 8.42527,-1.19438 8.89082,9.45707 1.10215,25.21639 -2.62929,5.31998 -4.77058,10.47555 -4.75844,11.45681 0.0377,3.05075 13.87109,24.05365 16.13345,24.4951 1.59905,0.312 2.35898,-0.93045 2.99258,-4.89277 1.08458,-6.78261 3.41685,-8.87762 7.70693,-6.92293 4.67832,2.13159 6.59258,10.41178 4.66828,20.19282 -2.66863,13.56439 -0.25769,13.38662 12.11168,-0.89301 z"
         id="path4" />
    </g>
  </g>
</svg>
