<?xml version="1.0" encoding="UTF-8" standalone="no"?>
<!-- Created with Inkscape (http://www.inkscape.org/) -->

<svg
   version="1.1"
   id="svg1"
   width="1024"
   height="1024"
   viewBox="0 0 1024 1024"
   sodipodi:docname="mlboss-logo-dark.svg"
   inkscape:version="1.4.2 (f4327f4, 2025-05-13)"
   xmlns:inkscape="http://www.inkscape.org/namespaces/inkscape"
   xmlns:sodipodi="http://sodipodi.sourceforge.net/DTD/sodipodi-0.dtd"
   xmlns="http://www.w3.org/2000/svg"
   xmlns:svg="http://www.w3.org/2000/svg">
  <defs
     id="defs1" />
  <sodipodi:namedview
     id="namedview1"
     pagecolor="#ffffff"
     bordercolor="#000000"
     borderopacity="0.25"
     inkscape:showpageshadow="2"
     inkscape:pageopacity="0.0"
     inkscape:pagecheckerboard="0"
     inkscape:deskcolor="#d1d1d1"
     inkscape:zoom="0.78808594"
     inkscape:cx="512"
     inkscape:cy="512"
     inkscape:window-width="1920"
     inkscape:window-height="1009"
     inkscape:window-x="2248"
     inkscape:window-y="87"
     inkscape:window-maximized="1"
     inkscape:current-layer="g1" />
  <g
     inkscape:groupmode="layer"
     inkscape:label="Image"
     id="g1">
    <path
       style="fill:#eeece8;stroke-width:1.31036"
       d="m 260.13414,1015.1207 c -24.76376,-18.92083 -62.75458,-28.95589 -95.21504,-25.15056 -10.80668,1.26686 -13.18902,1.21247 -14.74257,-0.33662 -3.66244,-3.65193 2.26296,-7.59773 22.54569,-15.01342 92.89293,-33.96316 315.80386,-68.44636 550.6239,-85.17877 36.84195,-2.62521 43.31214,-3.04942 120.55305,-7.90367 76.95393,-4.83622 97.75265,-7.28283 119.03399,-14.00223 11.24226,-3.54965 13.96746,-3.33497 13.96746,1.10031 0,5.64604 -7.50847,11.33281 -20.42704,15.47099 -21.68696,6.94694 -40.88325,10.00219 -119.12621,18.95987 -132.99337,15.2258 -294.10324,40.73722 -381.96971,60.48414 -69.90923,15.71123 -133.07198,35.57878 -166.71702,52.44006 -14.93118,7.4828 -17.70487,7.3982 -28.5265,-0.8701 z M 49.521654,924.04963 C 40.891576,921.72531 34.174058,917.50776 27.715206,910.35857 5.626717,885.90926 11.97926,839.86976 40.345575,818.82104 c 8.713325,-6.46557 13.600349,-8.06519 24.640047,-8.06519 7.676792,0 9.430786,0.46644 12.978164,3.45136 6.510127,5.47792 5.20476,9.00093 -6.097206,16.45561 -10.426869,6.87746 -16.310866,14.26291 -20.216562,25.37532 -5.15118,14.65603 -1.52843,27.57158 9.259587,33.01167 12.101901,6.10263 24.509863,2.14546 37.791336,-12.05248 10.471739,-11.19433 17.969229,-24.78848 37.979109,-68.8622 28.69468,-63.20289 43.01777,-90.15814 56.10319,-105.58313 3.89091,-4.58655 7.07438,-9.02034 7.07438,-9.85282 0,-4.65281 -28.13985,8.42193 -40.88221,18.99529 -10.05666,8.3448 -18.24761,19.67037 -23.78564,32.88824 -3.34662,7.98751 -3.92455,11.25837 -4.47346,25.31817 -0.62324,15.96359 -0.66917,16.16106 -4.07252,17.51173 -5.97573,2.37154 -16.86042,-0.6892 -22.68814,-6.37981 -7.251106,-7.08051 -9.381475,-13.73766 -8.679031,-27.12094 0.675333,-12.86669 4.614443,-22.24569 15.233331,-36.27045 17.4348,-23.02678 40.33026,-37.0938 76.24408,-46.84453 11.33285,-3.07691 14.74944,-3.38631 38.12545,-3.45258 28.38783,-0.0805 30.01322,0.33565 30.01322,7.68388 0,3.14194 -1.30405,5.42739 -5.32913,9.33966 -12.11709,11.77746 -20.95395,33.19808 -23.48961,56.93897 -0.80823,7.56732 -2.32025,19.50409 -3.36005,26.52615 -2.08612,14.0881 -2.41166,21.96031 -0.90778,21.95115 0.54053,-0.004 3.77723,-5.49836 7.19268,-12.21126 22.37118,-43.96945 55.8412,-83.21683 82.40055,-96.62395 23.93122,-12.08044 46.15717,-9.76042 49.13501,5.12885 0.79286,3.96424 0.16588,4.87895 -10.33249,15.07456 -12.34961,11.99344 -17.09376,18.74337 -26.84078,38.18896 -16.30288,32.52463 -35.15066,89.10595 -38.94185,116.90392 -1.77909,13.04472 4.06425,20.82812 13.06692,17.40532 5.81909,-2.21241 18.99862,-12.07791 25.66742,-19.21328 5.13262,-5.49171 6.15095,-7.49338 6.91634,-13.595 4.11434,-32.79988 17.8617,-76.48926 32.55688,-103.4665 14.20985,-26.08626 32.21106,-46.9189 46.71158,-54.05889 7.51621,-3.70094 9.96828,-4.25209 18.91761,-4.25209 10.19964,0 10.31809,0.0392 14.77081,4.89459 4.44607,4.84814 4.4887,5.0116 4.4887,17.21569 0,26.42897 -14.75081,60.44643 -42.4031,97.78758 -8.12092,10.96635 -32.94969,37.26431 -41.1323,43.56625 -6.43172,4.95346 -2.38095,23.34938 5.58156,25.34785 4.86529,1.22111 14.14654,-1.76018 22.70939,-7.29464 4.09198,-2.64476 14.21022,-12.01608 22.48501,-20.82514 13.46448,-14.33387 15.45933,-15.97584 18.9884,-15.62941 3.80714,0.37373 3.97433,0.66808 4.84074,8.52248 1.01438,9.19573 4.59745,18.20005 8.68688,21.83025 1.51678,1.34646 5.37448,2.74304 8.57266,3.10352 4.70562,0.5304 7.13357,-0.0616 12.72757,-3.10327 8.60608,-4.67946 14.73871,-12.33919 23.12241,-28.88011 6.8084,-13.43288 7.86771,-16.02186 25.37525,-62.01748 13.70933,-36.017 22.46698,-56.11441 28.87122,-66.2548 5.73434,-9.07967 6.19539,-11.05639 2.57884,-11.05639 -4.49235,0 -31.05361,14.21756 -37.66316,20.16011 -12.46292,11.20524 -17.93639,29.05719 -12.92906,42.1687 2.74764,7.19459 2.06068,9.30267 -3.83405,11.76565 -9.72277,4.06244 -23.56791,1.59233 -30.62383,-5.46358 l -4.47909,-4.4791 0.55378,-11.43773 c 0.47892,-9.89138 1.16043,-12.58925 5.04082,-19.95507 6.27451,-11.91032 26.15558,-31.71437 39.93068,-39.77598 34.51735,-20.20059 83.49389,-27.98789 115.96679,-18.43881 17.8695,5.25476 34.52431,18.93697 37.95154,31.17785 2.56542,9.16282 1.19567,26.02932 -2.83424,34.8991 -6.1972,13.64004 -21.92317,27.59608 -36.78536,32.64524 -3.7671,1.2798 -6.99345,3.1557 -7.16967,4.16863 -0.18118,1.04149 1.96529,2.89043 4.94,4.25526 7.09838,3.25683 18.91459,14.26191 23.27251,21.67494 3.33476,5.67257 3.55651,7.03022 3.55651,21.7741 0,15.35813 -0.10981,15.95316 -4.71512,25.552 -8.65385,18.03719 -23.70566,31.01261 -43.56194,37.55265 -9.28172,3.0571 -12.932,3.53402 -27.72378,3.62216 -18.15496,0.10811 -22.49312,-0.8582 -30.57741,-6.81149 -7.00136,-5.15582 -9.37805,-10.21774 -9.38364,-19.98539 -0.007,-10.28492 2.2483,-14.37793 7.91851,-14.37793 3.46293,0 4.22814,0.8478 7.72386,8.55746 3.1617,6.97298 4.73339,8.91398 8.4883,10.48287 13.88168,5.80014 35.5627,-3.45568 44.93704,-19.18401 5.3037,-8.8986 8.78642,-22.11147 7.66944,-29.09668 -2.45074,-15.32608 -11.34416,-25.57972 -28.01763,-32.30286 -5.53785,-2.233 -10.95332,-4.54346 -12.03436,-5.13436 -2.57549,-1.40777 -3.38115,-12.3269 -1.04588,-14.17457 0.93558,-0.74024 7.00801,-2.00653 13.49429,-2.814 22.45422,-2.79529 38.69591,-14.23393 45.30538,-31.90748 6.17119,-16.5016 2.60471,-29.94109 -9.60994,-36.21294 -6.47469,-3.32455 -17.73668,-4.46864 -24.74124,-2.51341 -7.50334,2.09445 -17.56933,23.39925 -34.52777,73.07857 -17.63935,51.67399 -28.3979,76.92461 -40.78927,95.73352 -10.68943,16.22552 -26.28108,29.50692 -39.206,33.39676 -7.41813,2.23252 -20.13647,2.43838 -27.46708,0.44458 -7.16691,-1.94927 -19.06079,-14.17357 -21.54768,-22.14627 -1.01161,-3.24314 -2.28537,-6.41574 -2.83057,-7.05021 -0.5452,-0.63448 -7.66602,5.61664 -15.82406,13.8914 -18.04637,18.30457 -26.77023,23.3215 -42.28462,24.31716 -5.32563,0.34177 -11.82701,0.21919 -14.44752,-0.27242 -6.00928,-1.12735 -14.21289,-9.11226 -16.43071,-15.99271 -2.97278,-9.22253 -3.18233,-9.16602 -16.79589,4.5303 -17.1858,17.29026 -23.69188,20.54244 -41.09564,20.54244 -12.6922,0 -12.70723,-0.004 -17.33757,-4.49179 -2.5489,-2.47049 -5.33557,-6.59812 -6.19263,-9.17252 -2.31983,-6.96828 -1.61756,-27.84056 1.42849,-42.45628 6.49494,-31.16428 23.25501,-80.17167 36.22796,-105.93248 13.60528,-27.0165 -9.48894,0.32434 -32.28711,38.22413 -5.85263,9.72941 -19.58197,35.6499 -30.50965,57.60109 -13.38006,26.87741 -21.45999,41.58955 -24.7418,45.05041 -4.69956,4.95602 -5.11691,5.11576 -11.70993,4.48226 -7.50265,-0.72091 -11.58953,-4.08612 -11.58953,-9.54305 0,-1.65912 1.74582,-12.13802 3.8796,-23.28644 7.11947,-37.19733 15.74785,-93.70458 17.42868,-114.14035 0.56243,-6.83812 -2.45934,-4.96867 -6.61134,4.09018 -6.28903,13.7214 -18.07355,43.185 -24.38171,60.95899 -22.36777,63.02381 -45.47535,100.73119 -69.863807,114.00505 -13.370538,7.27717 -33.494314,9.56878 -48.511279,5.52426 z M 379.1168,802.39091 c 10.11828,-10.69859 28.26438,-39.64285 39.52786,-63.04964 8.49749,-17.65873 11.59739,-34.78384 6.47188,-35.75322 -3.91994,-0.74136 -14.76472,10.89168 -23.1651,24.8489 -9.50764,15.79693 -18.4654,35.36652 -27.02446,59.03902 -8.75785,24.22238 -7.8086,27.60151 4.18982,14.91494 z m 302.953,63.44687 c -3.24314,-0.60828 -7.49463,-1.72862 -9.44778,-2.48962 -5.49063,-2.13933 -13.81416,-11.24515 -15.35665,-16.79994 -3.67926,-13.24969 -0.16184,-35.7778 8.41155,-53.87375 12.29661,-25.95457 36.5419,-51.42939 55.99292,-58.83246 3.65183,-1.3899 9.98099,-2.17406 18.14853,-2.24853 11.56109,-0.10548 12.9635,0.16495 17.94501,3.45978 2.97211,1.96578 7.02181,6.33503 8.99936,9.70944 3.12314,5.32925 3.69215,7.98746 4.33109,20.23319 0.40457,7.75383 1.13963,14.50081 1.63346,14.9933 1.53221,1.52798 13.54461,-3.18513 20.22708,-7.93619 7.09955,-5.0476 17.92055,-17.99088 28.82855,-34.48263 13.84352,-20.92988 23.4704,-28.75037 36.85728,-29.94133 6.38186,-0.56776 8.08656,-0.23337 11.13856,2.18486 4.45717,3.53164 4.61516,7.80955 0.43349,11.73804 -1.7435,1.63792 -4.51417,6.01575 -6.15703,9.72851 -4.22876,9.55659 -3.73496,18.88013 2.02189,38.17637 5.12812,17.18885 5.90884,27.71063 2.7204,36.66261 -3.5063,9.84439 0.37078,7.94444 12.16742,-5.96257 8.01471,-9.4485 15.33346,-20.04855 43.79929,-63.43631 20.5756,-31.36143 33.27171,-41.88167 47.71528,-39.53781 5.41655,0.87898 9.66256,4.16519 9.66256,7.47834 0,1.24239 -2.0701,5.69664 -4.60025,9.89835 -8.68929,14.43002 -9.07336,20.88065 -2.60672,43.78205 5.11165,18.10279 5.98802,31.61582 2.74847,42.38004 -1.01078,3.35857 -1.32755,6.42184 -0.70392,6.80727 1.92687,1.19086 11.95155,-5.8251 21.03512,-14.72186 9.69454,-9.49518 13.84374,-10.52748 16.12574,-4.01198 2.314,6.60698 -5.4006,18.35632 -20.05911,30.54996 -10.76753,8.95692 -20.01074,13.82475 -37.12569,19.55176 -12.77194,4.27377 -14.98896,4.61816 -29.72918,4.61816 -17.86324,0 -22.86616,-1.37477 -30.04504,-8.25616 -2.40542,-2.30575 -5.51887,-6.41474 -6.91878,-9.13112 -2.27641,-4.41714 -2.83795,-4.78225 -5.31568,-3.4562 -1.52371,0.81546 -5.19137,3.68001 -8.15036,6.36564 -6.30659,5.72401 -18.72116,14.20744 -26.81221,18.32198 -13.10944,6.66654 -42.85142,8.98155 -53.25822,4.14543 -6.14774,-2.8569 -14.32643,-11.01709 -16.30147,-16.26462 -2.12632,-5.64946 -1.66684,-16.7146 0.90678,-21.8371 3.02125,-6.01341 9.90139,-10.50899 16.08321,-10.50899 7.24272,0 8.61945,2.38014 6.49618,11.23091 -1.60242,6.67968 -1.53709,7.46942 0.8906,10.76481 3.86703,5.24914 10.95005,8.74923 15.43008,7.62481 10.03726,-2.5192 16.78691,-16.89221 16.98674,-36.17233 0.13995,-13.50291 -3.51589,-35.03237 -6.61308,-38.94487 -1.71584,-2.16753 -2.18859,-1.91948 -6.72427,3.52816 -9.94138,11.94023 -26.0036,27.89026 -31.08584,30.86869 -2.88279,1.68946 -9.62766,4.28164 -14.9886,5.76041 -5.36093,1.47875 -10.12819,3.13765 -10.59387,3.68645 -0.46571,0.54877 -1.9041,3.94609 -3.19644,7.54958 -8.49658,23.69133 -30.51117,47.7289 -49.78525,54.36016 -8.68202,2.98705 -23.81938,4.25189 -32.1612,2.68731 z m 29.85423,-24.21455 c 7.87158,-4.07797 11.95392,-7.64867 17.95219,-15.70222 5.31012,-7.12964 13.78047,-23.20528 13.78047,-26.15361 0,-1.03475 -2.61599,-3.14774 -5.81332,-4.69553 -7.02414,-3.40033 -14.54183,-11.43041 -17.98211,-19.20774 -1.39391,-3.15118 -3.32204,-5.72942 -4.28471,-5.72942 -3.861,0 -17.58482,24.89622 -21.19204,38.44421 -4.76567,17.89896 0.21892,35.34472 10.33255,36.1632 0.56449,0.0457 3.80763,-1.35782 7.20697,-3.11889 z m 221.25654,-18.9682 c 5.23952,-3.1949 10.60829,-14.04575 12.37385,-25.00891 1.09901,-6.8243 0.84011,-11.86868 -1.40822,-27.43663 -1.51515,-10.49124 -3.06024,-20.1069 -3.43353,-21.36812 -0.94835,-3.20413 -4.04508,-2.85919 -5.8821,0.65518 -0.8476,1.62157 -7.39886,11.98979 -14.55834,23.04049 -12.45049,19.21743 -14.26837,23.80485 -9.43322,23.80485 1.86337,0 2.04602,1.12248 1.33269,8.18975 -0.97162,9.62616 0.46735,13.27619 6.9584,17.65051 5.40075,3.63958 8.67641,3.74982 14.05047,0.47288 z m -182.4362,-51.9039 c -0.0803,-5.2708 -1.05103,-9.64044 -2.97494,-13.39242 -3.51049,-6.84609 -7.05778,-7.34568 -10.11938,-1.4252 -2.73651,5.29185 -0.93287,12.17601 4.94366,18.869 5.95474,6.78209 8.29809,5.61731 8.15066,-4.05138 z M 480.27449,638.93991 C 392.89671,628.89985 319.76217,570.72333 292.85841,489.85559 c -8.29277,-24.92657 -9.77521,-35.65789 -9.70335,-70.24197 0.0552,-26.54528 0.41374,-31.62073 3.0079,-42.57341 4.42648,-18.68881 8.64143,-30.46142 17.16124,-47.93244 10.75497,-22.05454 21.10202,-36.83774 37.61979,-53.74871 28.25398,-28.92653 58.14232,-46.78973 97.399,-58.21189 24.581,-7.15211 35.72569,-8.47698 71.41458,-8.4897 37.61885,-0.0134 49.87476,1.7596 77.56939,11.22161 35.86729,12.25425 61.15291,27.92677 85.21006,52.81488 18.43078,19.06739 29.55562,35.00772 40.80683,58.47042 33.14038,69.10926 26.28228,150.95403 -17.89743,213.58855 -11.20791,15.88969 -37.94463,42.6568 -53.99775,54.05912 -15.37775,10.9226 -39.44897,23.05187 -57.65581,29.05223 -32.24449,10.6267 -71.17526,14.79198 -103.51837,11.07563 z m 68.79386,-29.18407 c 24.51226,-5.91681 53.09781,-18.18914 75.10943,-32.24592 12.03042,-7.68272 11.05605,-9.6118 -5.34151,-10.57532 -11.00236,-0.64649 -13.20852,-1.1736 -16.03815,-3.8319 -3.50955,-3.29705 -4.34002,-8.9044 -1.70851,-11.5359 0.86483,-0.86484 4.12647,-1.57243 7.24809,-1.57243 3.50798,0 5.93057,-0.66425 6.34307,-1.73921 0.36707,-0.95656 -2.57714,-6.90715 -6.54269,-13.22352 -3.96554,-6.31638 -7.55569,-12.57325 -7.9781,-13.90415 -0.4224,-1.3309 -2.95108,-3.12642 -5.61926,-3.99003 -15.12979,-4.89709 -27.78253,-14.64918 -27.78253,-21.4134 0,-7.95691 5.35518,-9.49713 13.58251,-3.90652 2.7601,1.87553 5.4786,2.90743 6.04111,2.29312 0.8585,-0.93754 -1.50166,-12.26067 -8.01698,-38.46216 -0.83643,-3.36372 -2.57504,-5.45949 -6.52228,-7.86215 -7.73395,-4.70761 -16.63056,-15.04054 -17.65598,-20.50648 -2.20059,-11.73018 6.39798,-14.95773 14.34884,-5.38596 3.26544,3.93118 4.78825,4.98508 5.20671,3.60349 0.32528,-1.07398 1.28131,-11.18883 2.12449,-22.47744 l 1.53305,-20.52475 -4.79763,-6.67796 c -7.95172,-11.06821 -10.66459,-23.91066 -5.9519,-28.17559 4.93189,-4.46329 8.46381,-2.25361 13.09573,8.19314 1.68262,3.79493 3.67412,0.74774 10.37174,-15.86981 l 6.9799,-17.31795 -2.21345,-7.13456 c -3.54713,-11.43332 -4.06687,-21.87153 -1.24432,-24.99042 1.2939,-1.42975 3.24664,-2.59953 4.33941,-2.59953 3.45618,0 6.77947,4.15197 6.77947,8.46997 0,2.27299 0.81444,5.24654 1.80987,6.60787 1.70041,2.32546 2.07684,2.08867 6.22421,-3.9152 2.42788,-3.51469 7.21523,-10.09621 10.63854,-14.6256 3.42331,-4.52938 6.21904,-8.99371 6.21274,-9.92071 -0.0131,-1.9054 -10.31048,-8.77224 -24.89029,-16.59794 -30.19433,-16.2068 -74.25461,-24.68172 -110.82571,-21.31714 -29.96688,2.75699 -54.48591,9.05515 -77.81813,19.98898 -13.19094,6.18149 -30.18122,16.53266 -30.18122,18.38764 0,0.71811 2.50607,4.39073 5.56903,8.16139 3.06297,3.77067 7.63284,9.91785 10.15529,13.66041 2.608,3.86951 5.43162,6.66038 6.5461,6.4702 1.14718,-0.19577 2.50558,-2.77257 3.2759,-6.21421 1.70378,-7.61206 2.78815,-9.15566 6.43173,-9.15566 5.50517,0 7.81007,4.25339 6.91446,12.75974 -0.43726,4.15294 -1.93681,10.86114 -3.33234,14.90709 l -2.53734,7.35628 5.84425,14.91982 c 9.01772,23.02144 8.10795,21.3016 10.30406,19.47899 1.06308,-0.88228 1.93287,-2.58006 1.93287,-3.77285 0,-3.99105 3.89343,-7.99327 7.77602,-7.99327 5.51485,0 7.1195,2.81751 6.27345,11.01513 -0.80384,7.78849 -3.23465,13.30117 -9.22597,20.92305 l -3.98992,5.07582 1.56139,12.61403 c 0.85876,6.93771 1.5557,16.26461 1.54876,20.72644 -0.0159,10.15658 1.80012,11.52933 6.87811,5.19945 2.71792,-3.38796 4.8854,-4.79452 7.38821,-4.79452 5.00267,0 6.68678,2.26616 6.68678,8.9978 0,5.46898 -0.54211,6.37586 -8.2639,13.82429 -4.54514,4.38424 -9.78944,9.19766 -11.65401,10.69649 -2.4499,1.96936 -3.82081,4.87663 -4.94316,10.48287 -0.85417,4.26675 -2.91804,13.35952 -4.58637,20.20615 -1.66832,6.84662 -2.56382,12.95102 -1.98998,13.56533 0.57383,0.61431 3.30158,-0.41759 6.06168,-2.29312 8.24422,-5.60209 13.58251,-4.05057 13.58251,3.94762 0,5.88282 -9.06287,13.60762 -22.32757,19.03108 l -10.25786,4.19407 -9.2691,14.30092 c -5.09802,7.86551 -8.90935,14.88302 -8.46964,15.59448 0.46251,0.74836 2.98647,0.92408 5.98829,0.41693 6.59638,-1.11446 10.26654,1.77103 10.26654,8.07158 0,6.51173 -4.00326,8.47621 -19.31065,9.47617 -16.92212,1.10544 -17.27971,2.7041 -2.70176,12.07871 24.97527,16.06081 54.59517,28.19961 78.08928,32.0025 16.13203,2.61122 64.28493,1.87523 76.92459,-1.17576 z m -185.23969,-70.0347 c -0.54332,-13.61109 1.31769,-18.55468 6.98488,-18.55468 2.65329,0 3.45104,0.99675 4.89799,6.1198 0.95067,3.36588 2.31167,6.31314 3.02448,6.54945 1.18508,0.39289 13.82902,-18.43318 15.76041,-23.46629 0.47655,-1.24187 -1.17133,-6.19659 -3.90075,-11.7285 -5.53158,-11.21123 -7.37672,-21.8548 -4.23999,-24.45807 1.11935,-0.92898 3.69241,-1.49902 5.71791,-1.26677 2.99415,0.34332 4.29524,1.70768 6.95863,7.29699 1.80174,3.78111 3.96489,6.87683 4.80701,6.87939 2.02625,0.007 10.77038,-27.63067 10.89793,-34.44413 0.0105,-0.56905 -3.82304,-5.12582 -8.51933,-10.12617 -10.9601,-11.6697 -13.31098,-17.25116 -9.05755,-21.50458 3.27837,-3.27838 7.28849,-2.42001 12.50887,2.67755 7.39291,7.21899 8.23993,5.63928 7.2672,-13.55345 -0.45399,-8.95762 -1.57242,-17.82062 -2.4854,-19.69556 -1.17095,-2.40472 -4.35351,-4.50941 -10.80318,-7.14434 -11.54693,-4.71738 -16.40879,-9.18119 -16.40879,-15.06541 0,-6.6395 4.19786,-8.01922 12.94715,-4.25538 3.7334,1.60607 7.13567,2.57246 7.56059,2.14752 1.54263,-1.54263 -0.99569,-9.65057 -6.43356,-20.55018 l -5.55684,-11.13805 -9.17252,-0.744 c -14.12075,-1.14536 -21.022,-5.93687 -20.06376,-13.93018 0.60468,-5.04407 3.88279,-6.56491 9.65297,-4.47839 2.92488,1.05766 5.24409,1.25695 5.9866,0.51444 1.95404,-1.95404 -14.44683,-22.63819 -17.95024,-22.63819 -3.58835,0 -19.21875,19.01785 -28.58217,34.77657 -10.70625,18.01868 -16.43107,31.51191 -21.10406,49.7416 -12.83971,50.08877 -3.5886,104.10599 25.14412,146.8165 10.09195,15.00145 21.2619,28.3719 23.16256,27.72563 1.0008,-0.34029 1.32324,-4.37642 0.99884,-12.50312 z m 299.92745,2.08348 c 10.07387,-11.93234 23.2023,-33.58443 29.28122,-48.29208 26.48827,-64.08727 14.78718,-138.97443 -29.85659,-191.08253 -4.98955,-5.82379 -10.10246,-10.57641 -11.3782,-10.57641 -3.1461,0 -19.95204,22.3746 -18.15542,24.17122 0.87998,0.87998 2.16565,0.78402 3.8854,-0.28997 5.52586,-3.45097 11.7783,-1.18851 11.7783,4.26198 0,7.15982 -7.88659,12.30729 -20.81569,13.58613 l -8.66739,0.85732 -5.51809,11.13805 c -5.17319,10.44187 -7.98782,19.03468 -6.66741,20.35508 0.31762,0.31762 3.94393,-0.60571 8.05846,-2.05186 9.30455,-3.27028 12.64438,-2.07153 12.64438,4.53842 0,5.63733 -5.685,10.8522 -16.46954,15.10761 -4.27465,1.6867 -8.48678,3.71497 -9.36025,4.50727 -1.70995,1.55099 -4.28018,20.65705 -4.29773,31.94748 -0.0139,8.9444 2.34166,10.03783 7.92503,3.67873 6.59851,-7.51529 14.34033,-6.08364 14.34033,2.65184 0,3.14385 -1.69302,6.23578 -6.68726,12.21275 -3.67799,4.40172 -7.80563,8.60165 -9.17251,9.3332 -1.76908,0.94677 -2.48526,2.7614 -2.48526,6.29708 0,5.63571 6.83427,31.12709 8.89868,33.1915 1.94973,1.94973 3.87376,0.30936 4.84987,-4.13488 1.88634,-8.58839 9.71329,-13.45067 13.77462,-8.55706 2.82049,3.39848 0.81293,14.32634 -4.58597,24.96302 l -4.95098,9.75421 7.5623,12.49923 c 4.15927,6.87456 8.21459,12.28178 9.01181,12.01604 0.79724,-0.26574 2.04482,-2.49972 2.7724,-4.9644 1.8022,-6.10496 3.03398,-7.75713 5.78337,-7.75713 5.93525,0 9.39347,11.18405 6.86619,22.20557 -2.5818,11.25934 1.24178,10.74429 11.63593,-1.56741 z"
       id="path81" />
    <path
       style="fill:#c69021;stroke-width:1.31036"
       d="m 378.47691,207.66302 c -0.67145,-0.90087 -2.87278,-7.49581 -4.89183,-14.65542 -2.01907,-7.15961 -7.7966,-26.32361 -12.83895,-42.58667 -5.04237,-16.26307 -11.22515,-36.64514 -13.73955,-45.29351 -4.29204,-14.762746 -4.95617,-16.084898 -10.86032,-21.62093 -7.25648,-6.804053 -9.91828,-13.835821 -7.90055,-20.871192 4.02004,-14.017056 17.59853,-18.399356 28.1916,-9.098518 6.72229,5.902251 8.49829,12.651832 5.78694,21.993082 -0.88623,3.053346 33.87787,28.094928 51.27809,36.937088 24.49722,12.44859 32.84367,5.41191 71.2524,-60.071021 l 10.17761,-17.351803 -2.74267,-5.665613 c -3.14062,-6.487667 -3.36636,-9.659457 -1.20166,-16.884594 3.20078,-10.6832436 13.70498,-14.5113243 24.58633,-8.960078 9.88629,5.0436106 13.17331,15.99368 7.90244,26.32543 l -2.66025,5.214535 12.55362,22.407299 c 26.00029,46.408615 37.66075,60.096415 51.19301,60.093685 9.06073,-10e-4 28.79947,-11.04161 56.59193,-31.651618 10.64573,-7.894547 11.98792,-9.325525 10.81046,-11.525631 -1.96736,-3.676055 -1.64296,-10.176354 0.76066,-15.2416 2.88646,-6.082753 9.18954,-9.71879 16.84755,-9.71879 7.39275,0 12.53147,3.183989 15.61038,9.672338 4.32151,9.106878 2.06063,17.032651 -7.01248,24.583085 -5.23149,4.353524 -5.40397,4.789166 -16.26781,41.090226 -20.84003,69.63617 -23.07591,77.3344 -23.07591,79.45155 0,1.16876 -0.89214,2.86543 -1.98256,3.77039 -1.63163,1.35414 -3.77706,0.82824 -12.12082,-2.97113 -18.80862,-8.56462 -52.67874,-18.4683 -75.65622,-22.122 -15.37491,-2.44482 -59.27607,-2.08276 -79.27674,0.65378 -30.49427,4.17231 -58.79004,11.82603 -81.07202,21.92916 -9.80629,4.44639 -8.7168,4.21573 -10.24268,2.16847 z"
       id="path79" />
  </g>
</svg>
